<?xml version="1.0" encoding="UTF-8" standalone="no"?>
<!-- Created with Inkscape (http://www.inkscape.org/) -->

<svg
   width="210mm"
   height="210mm"
   viewBox="0 0 210 210"
   version="1.1"
   id="svg1"
   xml:space="preserve"
   inkscape:version="1.4.3 (0d15f75042, 2025-12-25)"
   sodipodi:docname="favicon.svg"
   inkscape:export-filename="u7-school-logo.png"
   inkscape:export-xdpi="96"
   inkscape:export-ydpi="96"
   xmlns:inkscape="http://www.inkscape.org/namespaces/inkscape"
   xmlns:sodipodi="http://sodipodi.sourceforge.net/DTD/sodipodi-0.dtd"
   xmlns="http://www.w3.org/2000/svg"
   xmlns:svg="http://www.w3.org/2000/svg"><sodipodi:namedview
     id="namedview1"
     pagecolor="#ffffff"
     bordercolor="#000000"
     borderopacity="0.25"
     inkscape:showpageshadow="2"
     inkscape:pageopacity="0.0"
     inkscape:pagecheckerboard="0"
     inkscape:deskcolor="#d1d1d1"
     inkscape:document-units="mm"
     inkscape:zoom="0.51969075"
     inkscape:cx="318.45862"
     inkscape:cy="437.76034"
     inkscape:window-width="1680"
     inkscape:window-height="1027"
     inkscape:window-x="1920"
     inkscape:window-y="0"
     inkscape:window-maximized="1"
     inkscape:current-layer="layer1" /><defs
     id="defs1"><rect
       x="257.83936"
       y="543.57166"
       width="354.44409"
       height="99.325989"
       id="rect1" /></defs><g
     inkscape:label="Слой 1"
     inkscape:groupmode="layer"
     id="layer1"
     style="fill:#4080bf;fill-opacity:0.32983106;stroke:#1968b5;stroke-opacity:1"><g
       id="g2"
       transform="matrix(2.0907092,0,0,2.1121972,-139.28364,-160.10183)"
       style="fill:#4080bf;fill-opacity:0.32983106;stroke:#1968b5;stroke-opacity:1"><path
         style="fill:#4080bf;stroke:#1968b5;stroke-width:1.18033;stroke-dasharray:none;fill-opacity:0.32983106;stroke-opacity:1"
         d="m 76.863196,85.831103 c 0,0 0.05493,22.340337 -0.07588,33.614337 -0.03258,2.80805 0.730683,5.70225 2.084001,8.16289 1.460831,2.65612 3.678366,4.99248 6.236682,6.61852 2.525024,1.60489 5.545293,2.56223 8.527708,2.80015 3.027198,0.24149 5.707251,0.0843 8.400423,-0.25456 2.48928,-0.31319 4.97926,-1.12251 7.12763,-2.41831 1.90167,-1.14701 3.5074,-2.80295 4.83661,-4.58205 0.91215,-1.22089 1.70092,-2.09146 2.42205,-3.46792 0.51786,-0.98847 1.14045,-2.84697 1.14177,-3.53244 0.004,-2.31471 0.12728,-25.201279 0.12728,-25.201279 l 23.2921,-0.254558 -26.47408,48.620657 13.87344,-0.0318 28.51054,-52.661772 -0.25456,-7.382195 c 0,0 -42.71187,-0.0086 -46.07508,0.127278 -0.74815,0.03023 -2.41497,1.075359 -3.30925,2.004647 -0.84936,0.882612 -1.77106,2.401789 -1.78191,3.213801 -0.0586,4.38766 0.06,22.654271 -0.0319,27.842321 -0.0239,1.34812 -0.63232,3.15998 -1.52735,4.1684 -0.65687,0.74008 -1.52763,1.17094 -2.38648,1.59099 -0.72313,0.35367 -1.4872,0.72033 -2.291018,0.76368 -0.618318,0.0333 -3.118724,0.26628 -4.613872,-0.0955 -0.963617,-0.23314 -1.858111,-0.73973 -2.672862,-1.30462 -0.684401,-0.47451 -1.326027,-1.04321 -1.813731,-1.71827 -0.672437,-0.93076 -1.228672,-1.84286 -1.240971,-2.99105 -0.07003,-6.53729 0.268921,-19.01626 -0.09546,-28.12871 -0.05009,-1.252555 -0.674158,-2.518138 -1.52735,-3.436541 -0.917244,-0.987351 -2.5098,-1.988594 -3.586318,-2.021688 -2.275684,-0.06996 -4.548129,-0.04442 -6.822162,-0.04441 z"
         id="path1"
         sodipodi:nodetypes="csssssssssccccccsssssssssssssscc" /><text
         xml:space="preserve"
         transform="matrix(0.27738464,0,0,0.27738464,4.565557,-3.6406696)"
         id="text1"
         style="font-style:normal;font-variant:normal;font-weight:normal;font-stretch:normal;font-size:70.1306px;font-family:'Adwaita Sans';-inkscape-font-specification:'Adwaita Sans, @opsz=32,wght=700';font-variant-ligatures:normal;font-variant-caps:normal;font-variant-numeric:normal;font-variant-east-asian:normal;font-variation-settings:'opsz' 32, 'wght' 700;writing-mode:lr-tb;direction:ltr;white-space:pre;shape-inside:url(#rect1);display:inline;fill:#4080bf;stroke:#1968b5;stroke-width:2.97865;stroke-dasharray:none;fill-opacity:0.32983106;stroke-opacity:1"><tspan
           x="257.83984"
           y="608.48835"
           id="tspan2">SCHOOL</tspan></text></g></g></svg>
